<svg width="24" height="24" viewBox="0 0 24 24" fill="none" xmlns="http://www.w3.org/2000/svg">
<path fill-rule="evenodd" clip-rule="evenodd" d="M19 17C19.5523 17 20 17.4477 20 18C20 18.5523 19.5523 19 19 19H1C0.447715 19 0 18.5523 0 18C0 17.4477 0.447715 17 1 17H19ZM19 11C19.5523 11 20 11.4477 20 12C20 12.5523 19.5523 13 19 13H1C0.447715 13 0 12.5523 0 12C0 11.4477 0.447715 11 1 11H19ZM19 5C19.5523 5 20 5.44772 20 6C20 6.55228 19.5523 7 19 7H1C0.447715 7 0 6.55228 0 6C0 5.44772 0.447715 5 1 5H19Z" fill="black"/>
</svg>
